<?xml version="1.0" encoding="UTF-8"?>
<!DOCTYPE svg PUBLIC "-//W3C//DTD SVG 1.1//EN" "http://www.w3.org/Graphics/SVG/1.1/DTD/svg11.dtd">
<svg xmlns="http://www.w3.org/2000/svg" version="1.1" width="50px" height="41px" style="shape-rendering:geometricPrecision; text-rendering:geometricPrecision; image-rendering:optimizeQuality; fill-rule:evenodd; clip-rule:evenodd" xmlns:xlink="http://www.w3.org/1999/xlink">
<g><path style="opacity:1" fill="#f1eff3" d="M 42.5,-0.5 C 44.5,-0.5 46.5,-0.5 48.5,-0.5C 47.4154,1.58689 45.7488,2.92022 43.5,3.5C 42.4489,2.77765 41.7822,1.77765 41.5,0.5C 42.1667,0.5 42.5,0.166667 42.5,-0.5 Z"/></g>
<g><path style="opacity:1" fill="#3c85c7" d="M 48.5,-0.5 C 48.8333,-0.5 49.1667,-0.5 49.5,-0.5C 49.5,0.166667 49.5,0.833333 49.5,1.5C 44.9672,6.20571 39.9672,10.2057 34.5,13.5C 31.6582,15.9545 28.6582,18.2879 25.5,20.5C 25.1667,20.5 24.8333,20.5 24.5,20.5C 26.193,19.1467 27.5264,17.48 28.5,15.5C 31.3602,14.0649 34.0269,12.3982 36.5,10.5C 37.5387,8.46888 39.2054,7.13554 41.5,6.5C 42.4013,5.70951 43.0679,4.70951 43.5,3.5C 45.7488,2.92022 47.4154,1.58689 48.5,-0.5 Z"/></g>
<g><path style="opacity:1" fill="#699cd1" d="M 29.5,-0.5 C 30.5,-0.5 31.5,-0.5 32.5,-0.5C 31.3071,2.33386 29.3071,4.33386 26.5,5.5C 26.5,4.83333 26.1667,4.5 25.5,4.5C 26.7503,2.84593 28.0837,1.17927 29.5,-0.5 Z"/></g>
<g><path style="opacity:1" fill="#f3f4f7" d="M 32.5,-0.5 C 33.8333,-0.5 35.1667,-0.5 36.5,-0.5C 34.3227,1.50816 31.9894,3.34149 29.5,5C 28.7476,5.67076 28.4142,6.5041 28.5,7.5C 25.8727,7.79027 24.2061,9.12361 23.5,11.5C 22.2921,12.2341 20.9587,12.5674 19.5,12.5C 19.1667,12.5 18.8333,12.5 18.5,12.5C 20.9568,9.91079 23.6235,7.57746 26.5,5.5C 29.3071,4.33386 31.3071,2.33386 32.5,-0.5 Z"/></g>
<g><path style="opacity:1" fill="#ede5e8" d="M 41.5,0.5 C 41.7822,1.77765 42.4489,2.77765 43.5,3.5C 43.0679,4.70951 42.4013,5.70951 41.5,6.5C 40.8166,4.82351 39.4832,4.15684 37.5,4.5C 39.1667,3.5 40.5,2.16667 41.5,0.5 Z"/></g>
<g><path style="opacity:1" fill="#cf5e54" d="M 38.5,-0.5 C 39.8333,-0.5 41.1667,-0.5 42.5,-0.5C 42.5,0.166667 42.1667,0.5 41.5,0.5C 40.5,2.16667 39.1667,3.5 37.5,4.5C 36.5,5.16667 35.5,5.83333 34.5,6.5C 33.1667,6.5 31.8333,6.5 30.5,6.5C 33.1347,4.20315 35.8014,1.86982 38.5,-0.5 Z"/></g>
<g><path style="opacity:1" fill="#f2eff3" d="M 37.5,4.5 C 39.4832,4.15684 40.8166,4.82351 41.5,6.5C 39.2054,7.13554 37.5387,8.46888 36.5,10.5C 36.631,9.76109 36.4643,9.09442 36,8.5C 35.0138,9.17119 33.8471,9.17119 32.5,8.5C 33.1667,7.83333 33.8333,7.16667 34.5,6.5C 35.5,5.83333 36.5,5.16667 37.5,4.5 Z"/></g>
<g><path style="opacity:1" fill="#f9f8f9" d="M 49.5,1.5 C 49.5,2.5 49.5,3.5 49.5,4.5C 47.5447,4.79864 46.2114,5.79864 45.5,7.5C 41.8876,9.12624 38.8876,11.4596 36.5,14.5C 35.8333,14.8333 35.1667,15.1667 34.5,15.5C 34.5,14.8333 34.5,14.1667 34.5,13.5C 39.9672,10.2057 44.9672,6.20571 49.5,1.5 Z"/></g>
<g><path style="opacity:1" fill="#bad0e4" d="M 25.5,4.5 C 25.0269,5.90632 24.0269,6.57298 22.5,6.5C 22.9731,5.09368 23.9731,4.42702 25.5,4.5 Z"/></g>
<g><path style="opacity:1" fill="#5a92cd" d="M 25.5,4.5 C 26.1667,4.5 26.5,4.83333 26.5,5.5C 23.6235,7.57746 20.9568,9.91079 18.5,12.5C 16.8089,13.8637 15.1423,15.197 13.5,16.5C 11.6507,18.0125 9.65074,19.3458 7.5,20.5C 7.5,19.8333 7.5,19.1667 7.5,18.5C 12.2782,14.2706 17.2782,10.2706 22.5,6.5C 24.0269,6.57298 25.0269,5.90632 25.5,4.5 Z"/></g>
<g><path style="opacity:1" fill="#cb5448" d="M 30.5,6.5 C 31.8333,6.5 33.1667,6.5 34.5,6.5C 33.8333,7.16667 33.1667,7.83333 32.5,8.5C 31.2719,9.30646 30.2719,10.3065 29.5,11.5C 28.4324,10.5655 27.099,10.2322 25.5,10.5C 26.9002,9.89992 27.9002,8.89992 28.5,7.5C 29.1667,7.16667 29.8333,6.83333 30.5,6.5 Z"/></g>
<g><path style="opacity:1" fill="#c94d40" d="M 49.5,6.5 C 49.5,7.5 49.5,8.5 49.5,9.5C 47.9878,11.3167 45.9878,12.3167 43.5,12.5C 44.5511,11.7777 45.2178,10.7777 45.5,9.5C 45.5,8.83333 45.5,8.16667 45.5,7.5C 46.7079,6.76589 48.0413,6.43255 49.5,6.5 Z"/></g>
<g><path style="opacity:1" fill="#c33e33" d="M 25.5,10.5 C 27.099,10.2322 28.4324,10.5655 29.5,11.5C 27.9731,11.427 26.9731,12.0937 26.5,13.5C 25.5326,14.8062 24.1993,15.4729 22.5,15.5C 23.8062,14.5326 24.4729,13.1993 24.5,11.5C 24.5,10.8333 24.8333,10.5 25.5,10.5 Z"/></g>
<g><path style="opacity:1" fill="#f8f4f6" d="M 32.5,8.5 C 33.8471,9.17119 35.0138,9.17119 36,8.5C 36.4643,9.09442 36.631,9.76109 36.5,10.5C 34.0269,12.3982 31.3602,14.0649 28.5,15.5C 28.1667,14.5 27.5,13.8333 26.5,13.5C 26.9731,12.0937 27.9731,11.427 29.5,11.5C 30.2719,10.3065 31.2719,9.30646 32.5,8.5 Z"/></g>
<g><path style="opacity:1" fill="#cc5549" d="M 45.5,9.5 C 45.2178,10.7777 44.5511,11.7777 43.5,12.5C 43.5,12.8333 43.5,13.1667 43.5,13.5C 42.7638,15.2294 41.4305,16.2294 39.5,16.5C 39.0618,16.5654 38.7284,16.3988 38.5,16C 40.4257,15.5776 41.4257,14.4109 41.5,12.5C 42.2114,10.7986 43.5447,9.79864 45.5,9.5 Z"/></g>
<g><path style="opacity:1" fill="#f9f1f2" d="M 49.5,9.5 C 49.5,11.1667 49.5,12.8333 49.5,14.5C 48.609,15.1098 47.609,15.4431 46.5,15.5C 44.8212,15.7148 43.8212,15.0481 43.5,13.5C 43.5,13.1667 43.5,12.8333 43.5,12.5C 45.9878,12.3167 47.9878,11.3167 49.5,9.5 Z"/></g>
<g><path style="opacity:1" fill="#f6f6f8" d="M 18.5,12.5 C 18.8333,12.5 19.1667,12.5 19.5,12.5C 19.5,13.1667 19.5,13.8333 19.5,14.5C 17.4489,15.4871 15.7822,16.8205 14.5,18.5C 14.1667,18.5 13.8333,18.5 13.5,18.5C 13.5,17.8333 13.5,17.1667 13.5,16.5C 15.1423,15.197 16.8089,13.8637 18.5,12.5 Z"/></g>
<g><path style="opacity:1" fill="#f2f0f3" d="M 26.5,13.5 C 27.5,13.8333 28.1667,14.5 28.5,15.5C 27.5264,17.48 26.193,19.1467 24.5,20.5C 23.8333,20.8333 23.1667,21.1667 22.5,21.5C 22.1667,20.5 21.5,19.8333 20.5,19.5C 21.1667,18.1667 21.8333,16.8333 22.5,15.5C 24.1993,15.4729 25.5326,14.8062 26.5,13.5 Z"/></g>
<g><path style="opacity:1" fill="#d46e66" d="M 41.5,12.5 C 41.4257,14.4109 40.4257,15.5776 38.5,16C 38.7284,16.3988 39.0618,16.5654 39.5,16.5C 39.1667,17.5 38.5,18.1667 37.5,18.5C 37.0623,17.4937 36.3957,17.4937 35.5,18.5C 35.8333,17.1667 36.1667,15.8333 36.5,14.5C 38.5138,14.6085 40.1805,13.9418 41.5,12.5 Z"/></g>
<g><path style="opacity:1" fill="#f5eef0" d="M 43.5,13.5 C 43.8212,15.0481 44.8212,15.7148 46.5,15.5C 44.7656,18.2003 42.4323,20.2003 39.5,21.5C 38.791,20.596 37.791,20.2627 36.5,20.5C 36.8333,19.8333 37.1667,19.1667 37.5,18.5C 38.5,18.1667 39.1667,17.5 39.5,16.5C 41.4305,16.2294 42.7638,15.2294 43.5,13.5 Z"/></g>
<g><path style="opacity:1" fill="#f5f6f8" d="M 34.5,13.5 C 34.5,14.1667 34.5,14.8333 34.5,15.5C 33.6935,16.7281 32.6935,17.7281 31.5,18.5C 30.6618,18.8417 30.3284,19.5084 30.5,20.5C 28.7162,20.8925 27.0495,21.5592 25.5,22.5C 25.5,21.8333 25.5,21.1667 25.5,20.5C 28.6582,18.2879 31.6582,15.9545 34.5,13.5 Z"/></g>
<g><path style="opacity:1" fill="#f1f2f5" d="M 49.5,16.5 C 49.5,17.1667 49.5,17.8333 49.5,18.5C 48.1667,19.1667 46.8333,19.8333 45.5,20.5C 45.8333,18.1667 47.1667,16.8333 49.5,16.5 Z"/></g>
<g><path style="opacity:1" fill="#edf0f5" d="M 13.5,16.5 C 13.5,17.1667 13.5,17.8333 13.5,18.5C 10.6235,20.5775 7.95682,22.9108 5.5,25.5C 4.16667,26.1667 3.16667,27.1667 2.5,28.5C 1.39105,28.5569 0.391047,28.8902 -0.5,29.5C -0.5,28.5 -0.5,27.5 -0.5,26.5C 2.46577,24.8634 5.13243,22.8634 7.5,20.5C 9.65074,19.3458 11.6507,18.0125 13.5,16.5 Z"/></g>
<g><path style="opacity:1" fill="#f0ecf0" d="M 20.5,19.5 C 21.5,19.8333 22.1667,20.5 22.5,21.5C 21.205,22.4884 19.8717,23.4884 18.5,24.5C 18.5,23.1667 17.8333,22.5 16.5,22.5C 16.6941,20.0882 18.0274,19.0882 20.5,19.5 Z"/></g>
<g><path style="opacity:1" fill="#c94d41" d="M 37.5,18.5 C 37.1667,19.1667 36.8333,19.8333 36.5,20.5C 34.9382,20.7329 33.6049,21.3995 32.5,22.5C 31.6618,22.1583 31.3284,21.4916 31.5,20.5C 31.5,19.8333 31.5,19.1667 31.5,18.5C 32.8333,18.5 34.1667,18.5 35.5,18.5C 36.3957,17.4937 37.0623,17.4937 37.5,18.5 Z"/></g>
<g><path style="opacity:1" fill="#f2f0f4" d="M 36.5,20.5 C 37.791,20.2627 38.791,20.596 39.5,21.5C 37.807,22.8533 36.4736,24.52 35.5,26.5C 35.1667,26.5 34.8333,26.5 34.5,26.5C 34.5,25.1667 33.8333,24.5 32.5,24.5C 32.5,23.8333 32.5,23.1667 32.5,22.5C 33.6049,21.3995 34.9382,20.7329 36.5,20.5 Z"/></g>
<g><path style="opacity:1" fill="#2e7fc4" d="M 49.5,14.5 C 49.5,15.1667 49.5,15.8333 49.5,16.5C 47.1667,16.8333 45.8333,18.1667 45.5,20.5C 44.448,20.3505 43.448,20.5172 42.5,21C 41.1982,23.0218 39.5315,24.5218 37.5,25.5C 36.8333,25.8333 36.1667,26.1667 35.5,26.5C 36.4736,24.52 37.807,22.8533 39.5,21.5C 42.4323,20.2003 44.7656,18.2003 46.5,15.5C 47.609,15.4431 48.609,15.1098 49.5,14.5 Z"/></g>
<g><path style="opacity:1" fill="#6498cf" d="M 7.5,18.5 C 7.5,19.1667 7.5,19.8333 7.5,20.5C 5.13243,22.8634 2.46577,24.8634 -0.5,26.5C -0.5,25.8333 -0.5,25.1667 -0.5,24.5C 2.16667,22.5 4.83333,20.5 7.5,18.5 Z"/></g>
<g><path style="opacity:1" fill="#cb5348" d="M 23.5,11.5 C 23.8333,11.5 24.1667,11.5 24.5,11.5C 24.4729,13.1993 23.8062,14.5326 22.5,15.5C 21.8333,16.8333 21.1667,18.1667 20.5,19.5C 18.0274,19.0882 16.6941,20.0882 16.5,22.5C 15.2921,23.2341 13.9587,23.5674 12.5,23.5C 12.5,22.8333 12.5,22.1667 12.5,21.5C 13.9063,21.0269 14.573,20.0269 14.5,18.5C 17.1273,18.2097 18.7939,16.8764 19.5,14.5C 21.4553,14.2014 22.7886,13.2014 23.5,11.5 Z"/></g>
<g><path style="opacity:1" fill="#ce5c4f" d="M 30.5,20.5 C 30.8333,20.5 31.1667,20.5 31.5,20.5C 31.3284,21.4916 31.6618,22.1583 32.5,22.5C 32.5,23.1667 32.5,23.8333 32.5,24.5C 30.6203,24.2291 29.287,24.8958 28.5,26.5C 27.8333,26.5 27.5,26.8333 27.5,27.5C 26.6618,27.1583 26.3284,26.4916 26.5,25.5C 27.2995,23.4265 28.6329,21.7598 30.5,20.5 Z"/></g>
<g><path style="opacity:1" fill="#ebeef3" d="M 45.5,20.5 C 43.7726,22.5667 41.7726,24.2334 39.5,25.5C 38.8333,25.5 38.1667,25.5 37.5,25.5C 39.5315,24.5218 41.1982,23.0218 42.5,21C 43.448,20.5172 44.448,20.3505 45.5,20.5 Z"/></g>
<g><path style="opacity:1" fill="#f6f0f2" d="M 16.5,22.5 C 17.8333,22.5 18.5,23.1667 18.5,24.5C 17.5637,25.9744 16.2303,26.9744 14.5,27.5C 13.3684,26.6457 12.035,26.6457 10.5,27.5C 11.6005,26.3951 12.2671,25.0618 12.5,23.5C 13.9587,23.5674 15.2921,23.2341 16.5,22.5 Z"/></g>
<g><path style="opacity:1" fill="#3782c6" d="M 24.5,20.5 C 22.2149,23.4518 19.5483,26.1185 16.5,28.5C 15.3634,29.7888 14.0301,30.7888 12.5,31.5C 12.5,31.1667 12.5,30.8333 12.5,30.5C 13.1667,29.5 13.8333,28.5 14.5,27.5C 16.2303,26.9744 17.5637,25.9744 18.5,24.5C 19.8717,23.4884 21.205,22.4884 22.5,21.5C 23.1667,21.1667 23.8333,20.8333 24.5,20.5 Z"/></g>
<g><path style="opacity:1" fill="#f5f3f5" d="M 32.5,24.5 C 33.8333,24.5 34.5,25.1667 34.5,26.5C 33.3285,27.3446 31.9952,28.0113 30.5,28.5C 30.1667,27.5 29.5,26.8333 28.5,26.5C 29.287,24.8958 30.6203,24.2291 32.5,24.5 Z"/></g>
<g><path style="opacity:1" fill="#eef0f5" d="M 24.5,20.5 C 24.8333,20.5 25.1667,20.5 25.5,20.5C 25.5,21.1667 25.5,21.8333 25.5,22.5C 24.1667,24.1667 22.8333,25.8333 21.5,27.5C 20.609,28.1098 19.609,28.4431 18.5,28.5C 17.8333,28.5 17.1667,28.5 16.5,28.5C 19.5483,26.1185 22.2149,23.4518 24.5,20.5 Z"/></g>
<g><path style="opacity:1" fill="#cf6055" d="M 26.5,25.5 C 26.3284,26.4916 26.6618,27.1583 27.5,27.5C 25.9236,28.1429 24.5903,29.1429 23.5,30.5C 23.0269,31.9063 22.0269,32.573 20.5,32.5C 19.6522,31.375 18.6522,31.375 17.5,32.5C 18.8333,30.8333 20.1667,29.1667 21.5,27.5C 23.0495,26.5592 24.7162,25.8925 26.5,25.5 Z"/></g>
<g><path style="opacity:1" fill="#f5f0f2" d="M 28.5,26.5 C 29.5,26.8333 30.1667,27.5 30.5,28.5C 29.7939,30.8764 28.1273,32.2097 25.5,32.5C 25.1667,31.5 24.5,30.8333 23.5,30.5C 24.5903,29.1429 25.9236,28.1429 27.5,27.5C 27.5,26.8333 27.8333,26.5 28.5,26.5 Z"/></g>
<g><path style="opacity:1" fill="#d16358" d="M 12.5,21.5 C 12.5,22.1667 12.5,22.8333 12.5,23.5C 12.2671,25.0618 11.6005,26.3951 10.5,27.5C 8.80072,27.5271 7.46739,28.1938 6.5,29.5C 5.16667,29.5 3.83333,29.5 2.5,29.5C 2.5,29.1667 2.5,28.8333 2.5,28.5C 4.5,28.5 5.5,27.5 5.5,25.5C 6.55198,25.6495 7.55198,25.4828 8.5,25C 9.53227,23.3732 10.8656,22.2066 12.5,21.5 Z"/></g>
<g><path style="opacity:1" fill="#f5eff1" d="M 14.5,27.5 C 13.8333,28.5 13.1667,29.5 12.5,30.5C 10.9382,30.7329 9.60486,31.3995 8.5,32.5C 7.39105,32.4431 6.39105,32.1098 5.5,31.5C 5.83333,30.8333 6.16667,30.1667 6.5,29.5C 7.46739,28.1938 8.80072,27.5271 10.5,27.5C 12.035,26.6457 13.3684,26.6457 14.5,27.5 Z"/></g>
<g><path style="opacity:1" fill="#c84d41" d="M 2.5,29.5 C 3.83333,29.5 5.16667,29.5 6.5,29.5C 6.16667,30.1667 5.83333,30.8333 5.5,31.5C 3.5,32.5 1.5,33.5 -0.5,34.5C -0.5,33.5 -0.5,32.5 -0.5,31.5C 0.5,30.8333 1.5,30.1667 2.5,29.5 Z"/></g>
<g><path style="opacity:1" fill="#f1f2f5" d="M 37.5,25.5 C 38.1667,25.5 38.8333,25.5 39.5,25.5C 34.1302,30.8719 28.4635,35.8719 22.5,40.5C 21.8333,40.5 21.1667,40.5 20.5,40.5C 25.0192,35.1536 30.0192,30.4869 35.5,26.5C 36.1667,26.1667 36.8333,25.8333 37.5,25.5 Z"/></g>
<g><path style="opacity:1" fill="#f2eef1" d="M 5.5,31.5 C 6.39105,32.1098 7.39105,32.4431 8.5,32.5C 6.1071,35.6262 3.1071,37.9595 -0.5,39.5C -0.5,37.8333 -0.5,36.1667 -0.5,34.5C 1.5,33.5 3.5,32.5 5.5,31.5 Z"/></g>
<g><path style="opacity:1" fill="#277dc4" d="M 34.5,26.5 C 34.8333,26.5 35.1667,26.5 35.5,26.5C 30.0192,30.4869 25.0192,35.1536 20.5,40.5C 19.5,40.5 18.5,40.5 17.5,40.5C 18.1667,39.8333 18.8333,39.1667 19.5,38.5C 20.7432,36.8361 22.4098,35.6695 24.5,35C 25.2524,34.3292 25.5858,33.4959 25.5,32.5C 28.1273,32.2097 29.7939,30.8764 30.5,28.5C 31.9952,28.0113 33.3285,27.3446 34.5,26.5 Z"/></g>
<g><path style="opacity:1" fill="#2c7fc4" d="M 12.5,30.5 C 12.5,30.8333 12.5,31.1667 12.5,31.5C 10.7376,32.2623 9.73758,33.5956 9.5,35.5C 8.44802,35.3505 7.44802,35.5172 6.5,36C 5.55547,38.4463 3.88881,39.9463 1.5,40.5C 0.833333,40.5 0.166667,40.5 -0.5,40.5C -0.5,40.1667 -0.5,39.8333 -0.5,39.5C 3.1071,37.9595 6.1071,35.6262 8.5,32.5C 9.60486,31.3995 10.9382,30.7329 12.5,30.5 Z"/></g>
<g><path style="opacity:1" fill="#f7f6f8" d="M 16.5,28.5 C 17.1667,28.5 17.8333,28.5 18.5,28.5C 16.8333,30.8333 14.8333,32.8333 12.5,34.5C 11.8333,34.8333 11.1667,35.1667 10.5,35.5C 10.1667,35.5 9.83333,35.5 9.5,35.5C 9.73758,33.5956 10.7376,32.2623 12.5,31.5C 14.0301,30.7888 15.3634,29.7888 16.5,28.5 Z"/></g>
<g><path style="opacity:1" fill="#f4f1f4" d="M 23.5,30.5 C 24.5,30.8333 25.1667,31.5 25.5,32.5C 25.5858,33.4959 25.2524,34.3292 24.5,35C 22.4098,35.6695 20.7432,36.8361 19.5,38.5C 19.1667,37.5 18.5,36.8333 17.5,36.5C 18.0256,34.7697 19.0256,33.4363 20.5,32.5C 22.0269,32.573 23.0269,31.9063 23.5,30.5 Z"/></g>
<g><path style="opacity:1" fill="#cc564b" d="M 20.5,32.5 C 19.0256,33.4363 18.0256,34.7697 17.5,36.5C 15.1202,37.2534 13.1202,38.5868 11.5,40.5C 10.1667,40.5 8.83333,40.5 7.5,40.5C 7.5,39.8333 7.5,39.1667 7.5,38.5C 8.49162,38.6716 9.15829,38.3382 9.5,37.5C 11.5,37.5 12.5,36.5 12.5,34.5C 14.2838,34.1075 15.9505,33.4408 17.5,32.5C 18.6522,31.375 19.6522,31.375 20.5,32.5 Z"/></g>
<g><path style="opacity:1" fill="#f7f6f8" d="M 9.5,35.5 C 9.83333,35.5 10.1667,35.5 10.5,35.5C 10.1667,36.1667 9.83333,36.8333 9.5,37.5C 8.50838,37.3284 7.84171,37.6618 7.5,38.5C 6.5,38.8333 5.83333,39.5 5.5,40.5C 4.16667,40.5 2.83333,40.5 1.5,40.5C 3.88881,39.9463 5.55547,38.4463 6.5,36C 7.44802,35.5172 8.44802,35.3505 9.5,35.5 Z"/></g>
<g><path style="opacity:1" fill="#f2eff2" d="M 17.5,36.5 C 18.5,36.8333 19.1667,37.5 19.5,38.5C 18.8333,39.1667 18.1667,39.8333 17.5,40.5C 15.5,40.5 13.5,40.5 11.5,40.5C 13.1202,38.5868 15.1202,37.2534 17.5,36.5 Z"/></g>
</svg>
